PathFileType	4	(X/Y/Z)	C:\Users\86182\Documents\cortex\Trimmed_M4_L9.trc
DataRate	CameraRate	NumFrames	NumMarkers	Units	OrigDataRate	OrigDataStartFrame	OrigNumFrames
100.00	100.00	       112	2	mm	100.00	541	       901
Frame#	Time	gripper			box			
		X1	Y1	Z1	X2	Y2	Z2	

541	5.400	276.20746	151.24207	292.47128	277.14117	149.20876	157.03528	
542	5.410	276.20880	151.24168	292.47095	277.14124	149.20721	157.03038	
543	5.420	276.21082	151.24112	292.47049	277.14218	149.20601	157.02840	
544	5.430	276.21301	151.24051	292.46997	277.14404	149.20529	157.02960	
545	5.440	276.21478	151.24002	292.46954	277.14664	149.20499	157.03322	
546	5.450	276.21567	151.23978	292.46936	277.14938	149.20496	157.03783	
547	5.460	276.21527	151.23988	292.46945	277.15176	149.20497	157.04207	
548	5.470	276.21350	151.24037	292.46985	277.15341	149.20490	157.04504	
549	5.480	276.21057	151.24120	292.47058	277.15393	149.20465	157.04601	
550	5.490	276.20688	151.24223	292.47144	277.15311	149.20422	157.04439	
551	5.500	276.20285	151.24336	292.47241	277.15097	149.20369	157.04027	
552	5.510	276.19888	151.24448	292.47336	277.14801	149.20308	157.03441	
553	5.520	276.19531	151.24548	292.47418	277.14471	149.20244	157.02792	
554	5.530	276.19263	151.24623	292.47482	277.14154	149.20180	157.02187	
555	5.540	276.19101	151.24669	292.47519	277.13885	149.20126	157.01714	
556	5.550	276.19049	151.24684	292.47534	277.13702	149.20087	157.01447	
557	5.560	276.19080	151.24675	292.47525	277.13626	149.20053	157.01430	
558	5.570	276.19174	151.24649	292.47504	277.13638	149.20016	157.01654	
559	5.580	276.19339	151.24602	292.47464	277.13699	149.19960	157.02049	
560	5.590	276.19577	151.24535	292.47409	277.13736	149.19879	157.02484	
561	5.600	276.19864	151.24455	292.47339	277.13696	149.19788	157.02832	
562	5.610	276.20142	151.24376	292.47272	277.13562	149.19711	157.03003	
563	5.620	276.20364	151.24313	292.47220	277.13370	149.19678	157.02954	
564	5.630	276.20517	151.24271	292.47183	277.13177	149.19696	157.02673	
565	5.640	276.20621	151.24242	292.47159	277.13037	149.19763	157.02191	
566	5.650	276.20700	151.24220	292.47141	277.12936	149.19855	157.01593	
567	5.660	276.20749	151.24207	292.47128	277.12851	149.19951	157.00998	
568	5.670	276.20776	151.24199	292.47122	277.12772	149.20039	157.00536	
569	5.680	276.20816	151.24187	292.47113	277.12729	149.20113	157.00323	
570	5.690	276.20892	151.24167	292.47095	277.12756	149.20149	157.00409	
571	5.700	276.20975	151.24142	292.47076	277.12878	149.20122	157.00739	
572	5.710	276.21017	151.24130	292.47064	277.13065	149.20006	157.01193	
573	5.720	276.20990	151.24138	292.47070	277.13260	149.19806	157.01651	
574	5.730	276.20908	151.24162	292.47092	277.13409	149.19557	157.02032	
575	5.740	276.20801	151.24191	292.47119	277.13477	149.19307	157.02316	
576	5.750	276.20706	151.24219	292.47137	277.13474	149.19098	157.02525	
577	5.760	276.20630	151.24240	292.47156	277.13425	149.18954	157.02690	
578	5.770	276.20551	151.24263	292.47174	277.13339	149.18884	157.02800	
579	5.780	276.20450	151.24290	292.47198	277.13214	149.18901	157.02812	
580	5.790	276.20349	151.24318	292.47223	277.13062	149.19023	157.02705	
581	5.800	276.20297	151.24333	292.47235	277.12903	149.19264	157.02502	
582	5.810	276.20331	151.24324	292.47226	277.12744	149.19609	157.02248	
583	5.820	276.20471	151.24284	292.47192	277.12585	149.20004	157.01950	
584	5.830	276.20688	151.24223	292.47144	277.12439	149.20372	157.01616	
585	5.840	276.20938	151.24153	292.47083	277.12332	149.20638	157.01294	
586	5.850	276.21185	151.24083	292.47025	277.12292	149.20779	157.01073	
587	5.860	276.21390	151.24026	292.46976	277.12320	149.20819	157.01028	
588	5.870	276.21515	151.23991	292.46945	277.12415	149.20764	157.01158	
589	5.880	276.21542	151.23984	292.46939	277.12585	149.20602	157.01385	
590	5.890	276.21494	151.23997	292.46948	277.12833	149.20343	157.01614	
591	5.900	276.21408	151.24022	292.46970	277.13101	149.20052	157.01764	
592	5.910	276.21289	151.24054	292.46997	277.13312	149.19815	157.01773	
593	5.920	276.21124	151.24101	292.47037	277.13416	149.19679	157.01627	
594	5.930	276.20920	151.24158	292.47086	277.13419	149.19649	157.01366	
595	5.940	276.20728	151.24213	292.47131	277.13351	149.19707	157.01068	
596	5.950	276.20599	151.24248	292.47162	277.13257	149.19821	157.00795	
597	5.960	276.20560	151.24260	292.47174	277.13153	149.19954	157.00562	
598	5.970	276.20612	151.24245	292.47162	277.13034	149.20061	157.00334	
599	5.980	276.20728	151.24213	292.47131	277.12897	149.20113	157.00095	
600	5.990	276.20877	151.24171	292.47098	277.12759	149.20107	156.99895	
601	6.000	276.21008	151.24133	292.47067	277.12668	149.20061	156.99826	
602	6.010	276.21112	151.24106	292.47043	277.12646	149.19994	156.99924	
603	6.020	276.21179	151.24088	292.47028	277.12704	149.19919	157.00140	
604	6.030	276.21201	151.24081	292.47021	277.12820	149.19839	157.00395	
605	6.040	276.21161	151.24094	292.47034	277.12961	149.19762	157.00636	
606	6.050	276.21066	151.24120	292.47058	277.13065	149.19690	157.00827	
607	6.060	276.20947	151.24152	292.47083	277.13095	149.19633	157.00937	
608	6.070	276.20859	151.24174	292.47101	277.13043	149.19601	157.00941	
609	6.080	276.20844	151.24176	292.47104	277.12943	149.19606	157.00850	
610	6.090	276.20908	151.24152	292.47083	277.12833	149.19655	157.00693	
611	6.100	276.21017	151.24113	292.47046	277.12738	149.19740	157.00496	
612	6.110	276.21115	151.24075	292.47009	277.12656	149.19841	157.00279	
613	6.120	276.21155	151.24054	292.46991	277.12573	149.19923	157.00069	
614	6.130	276.21124	151.24054	292.46985	277.12466	149.19966	156.99869	
615	6.140	276.21063	151.24068	292.46997	277.12329	149.19962	156.99680	
616	6.150	276.21027	151.24081	292.47009	277.12173	149.19916	156.99529	
617	6.160	276.21024	151.24094	292.47021	277.12021	149.19830	156.99457	
618	6.170	276.21002	151.24110	292.47040	277.11920	149.19708	156.99518	
619	6.180	276.20926	151.24139	292.47067	277.11923	149.19556	156.99727	
620	6.190	276.20807	151.24178	292.47101	277.12073	149.19400	157.00058	
621	6.200	276.20688	151.24208	292.47125	277.12347	149.19276	157.00452	
622	6.210	276.20584	151.24228	292.47141	277.12665	149.19197	157.00830	
623	6.220	276.20499	151.24237	292.47144	277.12936	149.19159	157.01102	
624	6.230	276.20450	151.24232	292.47137	277.13104	149.19160	157.01187	
625	6.240	276.20471	151.24208	292.47113	277.13162	149.19215	157.01047	
626	6.250	276.20572	151.24168	292.47076	277.13138	149.19327	157.00710	
627	6.260	276.20715	151.24124	292.47037	277.13071	149.19476	157.00267	
628	6.270	276.20837	151.24094	292.47009	277.12994	149.19629	156.99832	
629	6.280	276.20877	151.24088	292.47006	277.12939	149.19757	156.99495	
630	6.290	276.20819	151.24110	292.47028	277.12927	149.19846	156.99312	
631	6.300	276.20663	151.24162	292.47073	277.12970	149.19885	156.99295	
632	6.310	276.20401	151.24248	292.47150	277.13046	149.19875	156.99414	
633	6.320	276.20044	151.24364	292.47253	277.13135	149.19817	156.99625	
634	6.330	276.19644	151.24490	292.47363	277.13220	149.19724	156.99911	
635	6.340	276.19275	151.24605	292.47464	277.13303	149.19611	157.00273	
636	6.350	276.19009	151.24689	292.47537	277.13361	149.19499	157.00671	
637	6.360	276.18887	151.24728	292.47571	277.13361	149.19405	157.01018	
638	6.370	276.18924	151.24722	292.47568	277.13272	149.19342	157.01221	
639	6.380	276.19110	151.24673	292.47528	277.13110	149.19322	157.01256	
640	6.390	276.19421	151.24588	292.47455	277.12921	149.19350	157.01164	
641	6.400	276.19815	151.24480	292.47363	277.12756	149.19418	157.01039	
642	6.410	276.20233	151.24365	292.47266	277.12668	149.19511	157.00977	
643	6.420	276.20630	151.24255	292.47174	277.12671	149.19603	157.01025	
644	6.430	276.20975	151.24159	292.47092	277.12732	149.19672	157.01137	
645	6.440	276.21243	151.24078	292.47021	277.12808	149.19714	157.01199	
646	6.450	276.21408	151.24020	292.46967	277.12878	149.19742	157.01146	
647	6.460	276.21463	151.23982	292.46930	277.12936	149.19760	157.01004	
648	6.470	276.21414	151.23959	292.46902	277.12976	149.19765	157.00830	
649	6.480	276.21268	151.23949	292.46881	277.12958	149.19737	157.00653	
650	6.490	276.21011	151.23958	292.46872	277.12863	149.19667	157.00479	
651	6.500	276.20633	151.23994	292.46887	277.12704	149.19550	157.00317	
652	6.510	276.20181	151.24062	292.46930	277.12527	149.19402	157.00194	
